<?xml version="1.0" encoding="UTF-8" standalone="no"?>
<svg
   version="1.1"
   viewBox="0 0 16 16"
   id="svg1"
   sodipodi:docname="window-symbolic.svg"
   inkscape:version="1.4.2 (ebf0e940d0, 2025-05-08)"
   xmlns:inkscape="http://www.inkscape.org/namespaces/inkscape"
   xmlns:sodipodi="http://sodipodi.sourceforge.net/DTD/sodipodi-0.dtd"
   xmlns="http://www.w3.org/2000/svg"
   xmlns:svg="http://www.w3.org/2000/svg">
  <defs
     id="defs1" />
  <sodipodi:namedview
     id="namedview1"
     pagecolor="#ffffff"
     bordercolor="#000000"
     borderopacity="0.25"
     inkscape:showpageshadow="2"
     inkscape:pageopacity="0.0"
     inkscape:pagecheckerboard="0"
     inkscape:deskcolor="#d1d1d1"
     inkscape:zoom="1"
     inkscape:cx="10.5"
     inkscape:cy="13"
     inkscape:window-width="1920"
     inkscape:window-height="1011"
     inkscape:window-x="0"
     inkscape:window-y="0"
     inkscape:window-maximized="1"
     inkscape:current-layer="g1" />
  <g
     fill="gray"
     id="g1"
     style="fill:#2e3436">
    <path
       d="M 3.9492,1 C 2.705,1.01457 1.7951,0.969446 1.0508,1.38477 0.67863,1.59242 0.38551,1.94416 0.22268,2.38282 0.0598,2.82148 2e-5,3.3424 2e-5,4.00002 v 4.99997 3 c 0,0.65761 0.059821,1.1785 0.22266,1.6172 0.16282,0.43866 0.45595,0.79039 0.82812,0.99805 0.74436,0.41537 1.6543,0.37027 2.8984,0.38477 h 0.00391 1.9805 1.0664 2 1.0664 1.9805 0.0039 c 1.2442,-0.0145 2.1541,0.0306 2.8984,-0.38477 0.37218,-0.20766 0.6653,-0.55939 0.82812,-0.99805 0.16284,-0.43868 0.22266,-0.95958 0.22266,-1.6172 v -3 -4.99997 c 0,-0.65761 -0.05978,-1.1785 -0.22266,-1.6172 C 15.6145,1.94416 15.32138,1.59242 14.94921,1.38477 14.204852,0.96945 13.294912,1.01457 12.050812,1 h -0.0039 -1.9805 -1.0663998 -2 -1.0664 -1.9805 z M 1.1133,4 H 5.9336 7 h 2 1.0664 4.8203 c 0.08781,2.323 0.12416,4.87677 0.125,6.99997 0,1 0.20689,2.3282 -0.76562,2.7754 -0.73392,0.24023 -2.202,0.22461 -4.1797,0.22461 h -1.0664 -2 -1.0664 c -1.9777,0 -3.4458,0.01562 -4.1797,-0.22461 C 0.78136,13.32816 0.98826,11.99997 0.98826,10.99997 0.989101,8.87677 1.02545,6.323 1.11326,4 Z"
       color="#000000"
       color-rendering="auto"
       fill="#808080"
       image-rendering="auto"
       shape-rendering="auto"
       solid-color="#000000"
       style="text-indent:0;text-decoration-line:none;text-decoration-style:solid;text-decoration-color:#000000;text-transform:none;white-space:normal;isolation:auto;mix-blend-mode:normal;fill:#2e3436"
       id="path1"
       sodipodi:nodetypes="cccscsccccccccccccscsccccccccccccccccccsccscccc" />
  </g>
</svg>
