<?xml version="1.0" encoding="UTF-8" standalone="no"?>
<svg
   height="16px"
   viewBox="0 0 16 16"
   width="16px"
   version="1.1"
   id="svg1"
   sodipodi:docname="eraser-symbolic.svg"
   inkscape:version="1.4.2 (ebf0e940d0, 2025-05-08)"
   xmlns:inkscape="http://www.inkscape.org/namespaces/inkscape"
   xmlns:sodipodi="http://sodipodi.sourceforge.net/DTD/sodipodi-0.dtd"
   xmlns="http://www.w3.org/2000/svg"
   xmlns:svg="http://www.w3.org/2000/svg">
  <defs
     id="defs1" />
  <sodipodi:namedview
     id="namedview1"
     pagecolor="#ffffff"
     bordercolor="#000000"
     borderopacity="0.25"
     inkscape:showpageshadow="2"
     inkscape:pageopacity="0.0"
     inkscape:pagecheckerboard="0"
     inkscape:deskcolor="#d1d1d1"
     inkscape:zoom="32"
     inkscape:cx="2.734375"
     inkscape:cy="7.6875"
     inkscape:window-width="1216"
     inkscape:window-height="991"
     inkscape:window-x="26"
     inkscape:window-y="23"
     inkscape:window-maximized="0"
     inkscape:current-layer="svg1" />
  <path
     d="M 4.4237583,13.892273 C 4.3365894,13.849761 3.7686188,13.279576 2.6862734,12.147983 1.2967241,10.695214 1.0728303,10.447367 1.0381114,10.323525 0.94813985,10.002576 0.66104365,10.327304 5.3084394,5.4872085 9.9555646,0.6469887 9.6435076,0.9459068 9.9518086,1.0392513 c 0.1203684,0.036465 0.4402774,0.3569124 2.5551374,2.5596581 2.114861,2.2027382 2.422551,2.5359389 2.457539,2.6613085 0.08893,0.3186611 0.29704,0.07822 -3.461209,3.9993331 -2.360386,2.462689 -3.4612818,3.589011 -3.5506302,3.632637 -0.1212683,0.05923 -0.2334207,0.06319 -1.7644437,0.06319 -1.5301251,0 -1.6432462,-0.0037 -1.7644438,-0.0631 z M 8.3088823,12.068441 9.0854887,11.259031 7.1188495,9.2106734 5.15221,7.162317 3.7035165,8.6712096 2.2548228,10.180102 l 1.2947543,1.348865 1.2947536,1.348872 h 1.3439731 1.3439711 z"
     fill="#444444"
     id="path1-5"
     style="stroke-width:0.925655" />
  <path
     style="fill:#444444;fill-opacity:1;stroke:#444444;stroke-width:0.0279636;stroke-opacity:1"
     d="m 3.0139818,14.49979 v -0.485808 l 5.7883073,4.17e-4 h 6.1837289 v 0.48581 0.485809 H 8.8022891 L 3.0139818,14.9856 Z"
     id="path3"
     sodipodi:nodetypes="ccccccccc" />
</svg>
