<?xml version="1.0" encoding="UTF-8" standalone="no"?>
<svg
   height="16"
   width="16.005"
   version="1.1"
   id="svg2"
   sodipodi:docname="format-show-marks-symbolic.svg"
   inkscape:version="1.4.2 (ebf0e940d0, 2025-05-08)"
   xmlns:inkscape="http://www.inkscape.org/namespaces/inkscape"
   xmlns:sodipodi="http://sodipodi.sourceforge.net/DTD/sodipodi-0.dtd"
   xmlns="http://www.w3.org/2000/svg"
   xmlns:svg="http://www.w3.org/2000/svg">
  <defs
     id="defs2" />
  <sodipodi:namedview
     id="namedview2"
     pagecolor="#ffffff"
     bordercolor="#000000"
     borderopacity="0.25"
     inkscape:showpageshadow="2"
     inkscape:pageopacity="0.0"
     inkscape:pagecheckerboard="0"
     inkscape:deskcolor="#d1d1d1"
     inkscape:zoom="1"
     inkscape:cx="-8.5"
     inkscape:cy="15"
     inkscape:window-width="1920"
     inkscape:window-height="1011"
     inkscape:window-x="0"
     inkscape:window-y="0"
     inkscape:window-maximized="1"
     inkscape:current-layer="g1" />
  <g
     fill="#808080"
     transform="translate(-592.995 -105)"
     id="g2">
    <g
       id="g1"
       transform="matrix(0.28947368,0,0,0.28947368,594.54126,106)"
       style="fill:#2e3436">
	
<path
   id="path1"
   style="baseline-shift:baseline;display:inline;overflow:visible;opacity:1;vector-effect:none;fill:#444444;stroke-width:1.07783;enable-background:accumulate;stop-color:#000000;stop-opacity:1"
   d="M 40.544015,0 C 28.459896,5.514e-4 31.269941,0.1127916 19.186086,0.1599984 14.166184,0.5344387 9.6115292,3.3370428 7.0707697,7.7381025 c -2.7316785,4.7317665 -2.7316783,10.5698965 0,15.3016625 2.4181443,4.18867 6.6568683,6.954266 11.3881053,7.534469 v 17.788911 h 3.723314 V 30.690597 3.8399608 l 7.164229,-0.028599 V 48.363637 h 3.723313 V 3.7968172 L 40.56583,3.7235982 Z M 18.458875,4.0581405 V 15.388935 26.719728 c -3.389241,-0.557809 -6.415731,-2.508998 -8.166565,-5.541761 -2.0695566,-3.58485 -2.0695568,-7.993215 0,-11.5780645 1.751033,-3.03311 4.776854,-4.9842083 8.166565,-5.541762 z"
   sodipodi:nodetypes="ccssccccccccccccccssc" />
</g>
  </g>
</svg>
