<?xml version="1.0" encoding="UTF-8" standalone="no"?>
<svg
   height="16"
   width="16"
   version="1.1"
   id="svg6"
   sodipodi:docname="format-paragraph-spacing-symbolic.svg"
   inkscape:version="1.4.2 (ebf0e940d0, 2025-05-08)"
   xmlns:inkscape="http://www.inkscape.org/namespaces/inkscape"
   xmlns:sodipodi="http://sodipodi.sourceforge.net/DTD/sodipodi-0.dtd"
   xmlns="http://www.w3.org/2000/svg"
   xmlns:svg="http://www.w3.org/2000/svg">
  <defs
     id="defs6" />
  <sodipodi:namedview
     id="namedview6"
     pagecolor="#ffffff"
     bordercolor="#000000"
     borderopacity="0.25"
     inkscape:showpageshadow="2"
     inkscape:pageopacity="0.0"
     inkscape:pagecheckerboard="0"
     inkscape:deskcolor="#d1d1d1"
     inkscape:zoom="16"
     inkscape:cx="13.78125"
     inkscape:cy="6"
     inkscape:window-width="1216"
     inkscape:window-height="991"
     inkscape:window-x="26"
     inkscape:window-y="23"
     inkscape:window-maximized="0"
     inkscape:current-layer="g5" />
  <g
     fill="#808080"
     transform="translate(-172 -420)"
     id="g6">
    <g
       transform="matrix(-0.9986834,0,0,1,0.23038375,0)"
       id="g5"
       style="fill:#444444;fill-opacity:1">
      <path
         d="m -187.01584,423 h 8.01055 v 1 h -8.01055 z"
         id="path2"
         style="fill:#444444;fill-opacity:1;stroke-width:1.00066" />
      <path
         d="m -187.01584,431 h 8.01055 v 1 h -8.01055 z"
         id="path3"
         style="fill:#444444;fill-opacity:1;stroke-width:1.00066" />
      <path
         d="m -187.01584,429 h 8.01055 v 1 h -8.01055 z"
         id="path5"
         style="fill:#444444;fill-opacity:1;stroke-width:1.00066" />
      <path
         d="m -176.00134,430 v -7 h 1.00132 v 7 z"
         id="path7"
         sodipodi:nodetypes="ccccc"
         style="fill:#444444;fill-opacity:1;stroke-width:0.913476" />
      <path
         d="m -187.01584,425 h 8.01055 v 1 h -8.01055 z"
         id="path10"
         style="fill:#444444;fill-opacity:1;stroke-width:1.00066" />
    </g>
    <path
       d="m 177,430 h -3 c 0.2088,0.4981 0.4422,1.0048 0.69958,1.5213 0.25862,0.5106 0.52562,1.0041 0.80042,1.4787 0.2694,-0.4746 0.5334,-0.9681 0.792,-1.4794 0.258,-0.5158 0.4938,-1.0231 0.708,-1.5206 z"
       id="path8"
       style="stroke-width:0.626702;fill:#444444;fill-opacity:1" />
    <path
       d="m 177,425 h -3 c 0.2088,-0.4981 0.4422,-1.0048 0.69958,-1.5213 0.25862,-0.5106 0.52562,-1.0041 0.80042,-1.4787 0.2694,0.4746 0.5334,0.9681 0.792,1.4794 0.258,0.5158 0.4938,1.0231 0.708,1.5206 z"
       id="path9"
       style="stroke-width:0.626702;fill:#444444;fill-opacity:1" />
  </g>
</svg>
