<?xml version="1.0" encoding="UTF-8" standalone="no"?>
<svg
   height="16px"
   viewBox="0 0 16 16"
   width="16px"
   version="1.1"
   id="svg1"
   sodipodi:docname="format-text-subscript-symbolic.svg"
   inkscape:version="1.4.2 (ebf0e940d0, 2025-05-08)"
   xml:space="preserve"
   xmlns:inkscape="http://www.inkscape.org/namespaces/inkscape"
   xmlns:sodipodi="http://sodipodi.sourceforge.net/DTD/sodipodi-0.dtd"
   xmlns="http://www.w3.org/2000/svg"
   xmlns:svg="http://www.w3.org/2000/svg"><defs
     id="defs1" /><sodipodi:namedview
     id="namedview1"
     pagecolor="#ffffff"
     bordercolor="#000000"
     borderopacity="0.25"
     inkscape:showpageshadow="2"
     inkscape:pageopacity="0.0"
     inkscape:pagecheckerboard="0"
     inkscape:deskcolor="#d1d1d1"
     inkscape:zoom="22.627417"
     inkscape:cx="-1.0827573"
     inkscape:cy="8.883029"
     inkscape:window-width="1920"
     inkscape:window-height="1011"
     inkscape:window-x="0"
     inkscape:window-y="0"
     inkscape:window-maximized="1"
     inkscape:current-layer="svg1" /><path
     d="M 5.2167968,0 0,14 H 1.6875 L 3.3554689,9.570312 H 8.917969 L 9.066406,10 h 1.666016 L 7.2109379,0 Z M 6.2324219,1.6113281 8.3613281,8.285156 H 3.873047 Z M 11,10 v 2 1 2 1 h 1 2 c 1.108,0 2,-0.892 2,-2 0,-0.81094 -0.481265,-1.501896 -1.171875,-1.816406 C 14.934075,11.977744 15,11.74831 15,11.5 15,10.669 14.331,10 13.5,10 H 12 Z m 1,1 h 1.5 c 0.277,0 0.5,0.223 0.5,0.5 0,0.277 -0.223,0.5 -0.5,0.5 H 12 Z m 0,2 h 1.5 0.5 c 0.554,0 1,0.446 1,1 0,0.554 -0.446,1 -1,1 h -2 z"
     fill="#808080"
     id="path1"
     style="fill:#444444;fill-opacity:1" /></svg>
