<?xml version="1.0" encoding="UTF-8" standalone="no"?>
<svg
   version="1.1"
   viewBox="0 0 16 16"
   id="svg4"
   sodipodi:docname="table-symbolic.svg"
   inkscape:version="1.4.2 (ebf0e940d0, 2025-05-08)"
   xmlns:inkscape="http://www.inkscape.org/namespaces/inkscape"
   xmlns:sodipodi="http://sodipodi.sourceforge.net/DTD/sodipodi-0.dtd"
   xmlns="http://www.w3.org/2000/svg"
   xmlns:svg="http://www.w3.org/2000/svg">
  <defs
     id="defs4" />
  <sodipodi:namedview
     id="namedview4"
     pagecolor="#ffffff"
     bordercolor="#000000"
     borderopacity="0.25"
     inkscape:showpageshadow="2"
     inkscape:pageopacity="0.0"
     inkscape:pagecheckerboard="0"
     inkscape:deskcolor="#d1d1d1"
     inkscape:zoom="1"
     inkscape:cx="8.5"
     inkscape:cy="7"
     inkscape:window-width="1920"
     inkscape:window-height="1011"
     inkscape:window-x="0"
     inkscape:window-y="0"
     inkscape:window-maximized="1"
     inkscape:current-layer="g4" />
  <g
     transform="matrix(0.97910883,0,0,0.99994296,-168.84861,-219.98603)"
     fill="#808080"
     id="g4">
    <path
       d="m 182.43227,232.00036 -4.3636,0.001 c 0.30341,0.66365 0.64289,1.3393 1.018,2.0271 0.37595,0.68141 0.76372,1.3387 1.1637,1.9714 0.39196,-0.63273 0.77602,-1.29 1.152,-1.9714 0.37527,-0.68825 0.71852,-1.3642 1.03,-2.0282 z"
       color="#000000"
       id="path1"
       style="fill:#444444;fill-opacity:1" />
    <path
       d="m 178.25,231 c -1.25,0 -2.95213,0.0443 -3.70703,-0.37508 -0.37746,-0.2097 -0.67538,-0.56341 -0.84179,-1.0039 -0.16642,-0.4405 -0.22852,-0.96276 -0.22852,-1.6211 v -4 c 0,-0.65833 0.0621,-1.1806 0.22852,-1.6211 0.16641,-0.4405 0.46433,-0.79421 0.84179,-1.0039 C 175.2979,220.95552 177,221 178.25,221 h 4 c 1.25,0 2.67483,-0.0445 3.42973,0.37492 0.37746,0.2097 0.67538,0.56341 0.84179,1.0039 0.16642,0.4405 0.22852,0.96276 0.22852,1.6211 v 4 c 0,0.65833 -0.0621,1.1806 -0.22852,1.6211 -0.16641,0.4405 -0.46433,0.79421 -0.84179,1.0039 C 184.9248,231.04432 183.5,231 182.25,231 Z m 0,-1 h 4 c 1.25,0 2.57523,-0.0445 2.94533,-0.25008 0.18504,-0.1028 0.29337,-0.21784 0.39258,-0.48047 0.0992,-0.26262 0.16211,-0.67786 0.16211,-1.2695 v -4 c 0,-0.43588 -0.042,-0.7461 -0.0996,-1 h -11.07816 c -0.0576,0.2539 -0.0996,0.56412 -0.0996,1 v 4 c 0,0.59167 0.0629,1.0069 0.16211,1.2695 0.0992,0.26263 0.20754,0.37767 0.39258,0.48047 0.37007,0.2056 1.97263,0.25008 3.22263,0.25008 z"
       color="#000000"
       color-rendering="auto"
       dominant-baseline="auto"
       image-rendering="auto"
       shape-rendering="auto"
       solid-color="#000000"
       style="font-variant-ligatures:normal;font-variant-position:normal;font-variant-caps:normal;font-variant-numeric:normal;font-variant-alternates:normal;font-feature-settings:normal;text-indent:0;text-decoration-line:none;text-decoration-style:solid;text-decoration-color:#000000;text-transform:none;text-orientation:mixed;white-space:normal;shape-padding:0;isolation:auto;mix-blend-mode:normal;fill:#444444;fill-opacity:1"
       id="path4"
       sodipodi:nodetypes="sccssccssccssccsscsccssccssccsc" />
  </g>
  <path
     d="m 13.5,6 h -12 v 1 h 12 z"
     id="path5"
     style="fill:#444444;fill-opacity:1;stroke-width:0.866026"
     sodipodi:nodetypes="ccccc" />
  <path
     d="M 7,1 V 11 H 8 V 1 Z"
     id="path9"
     style="fill:#444444;fill-opacity:1;stroke-width:0.866026"
     sodipodi:nodetypes="ccccc" />
</svg>
