<?xml version="1.0" encoding="UTF-8" standalone="no"?>
<svg
   height="16"
   width="16.005"
   version="1.1"
   id="svg2"
   sodipodi:docname="uppercase-symbolic.svg"
   inkscape:version="1.4.2 (ebf0e940d0, 2025-05-08)"
   xmlns:inkscape="http://www.inkscape.org/namespaces/inkscape"
   xmlns:sodipodi="http://sodipodi.sourceforge.net/DTD/sodipodi-0.dtd"
   xmlns="http://www.w3.org/2000/svg"
   xmlns:svg="http://www.w3.org/2000/svg">
  <defs
     id="defs2" />
  <sodipodi:namedview
     id="namedview2"
     pagecolor="#ffffff"
     bordercolor="#000000"
     borderopacity="0.25"
     inkscape:showpageshadow="2"
     inkscape:pageopacity="0.0"
     inkscape:pagecheckerboard="0"
     inkscape:deskcolor="#d1d1d1"
     inkscape:zoom="22.627417"
     inkscape:cx="9.3470678"
     inkscape:cy="6.1429902"
     inkscape:window-width="1920"
     inkscape:window-height="1011"
     inkscape:window-x="0"
     inkscape:window-y="0"
     inkscape:window-maximized="1"
     inkscape:current-layer="g2" />
  <g
     fill="#808080"
     transform="translate(-592.995 -105)"
     id="g2">
    <path
       d="m 596.96827,108 -2.97327,8.84211 h 0.71813 l 1.06497,-2.94737 h 3.70868 l 1.06208,2.94737 h 0.81456 L 598.34985,108 Z m 5.13199,0 v 5.89474 2.94737 h 0.73684 v -1.00309 a 2.9473684,2.9473684 0 0 0 2.21053,1.00309 2.9473684,2.9473684 0 0 0 2.94737,-2.94737 2.9473684,2.9473684 0 0 0 -2.94737,-2.94737 2.9473684,2.9473684 0 0 0 -2.21053,1.00308 V 108 Z m -4.46278,0.75843 1.58305,4.39946 h -3.17475 z m 7.41015,2.92578 a 2.2105263,2.2105263 0 0 1 2.21053,2.21053 2.2105263,2.2105263 0 0 1 -2.21053,2.21052 2.2105263,2.2105263 0 0 1 -2.21053,-2.21052 2.2105263,2.2105263 0 0 1 2.21053,-2.21053 z"
       fill="#444444"
       id="path1"
       style="stroke-width:0.736842" />
  </g>
</svg>
